<svg width="40" height="40" viewBox="0 0 40 40" fill="none" xmlns="http://www.w3.org/2000/svg">
<path fill-rule="evenodd" clip-rule="evenodd" d="M15.6024 9.39794C16.7402 9.34616 17.1038 9.3335 20.0007 9.3335H19.9973C22.8951 9.3335 23.2574 9.34616 24.3952 9.39794C25.5307 9.44994 26.3063 9.62972 26.9863 9.8935C27.6885 10.1657 28.2819 10.5302 28.8752 11.1235C29.4685 11.7164 29.833 12.3115 30.1063 13.0131C30.3686 13.6913 30.5486 14.4664 30.6019 15.602C30.653 16.7398 30.6663 17.1034 30.6663 20.0003C30.6663 22.8972 30.653 23.2599 30.6019 24.3977C30.5486 25.5328 30.3686 26.3081 30.1063 26.9866C29.833 27.6879 29.4685 28.283 28.8752 28.8759C28.2825 29.4693 27.6883 29.8346 26.987 30.107C26.3083 30.3708 25.5323 30.5506 24.3967 30.6026C23.2589 30.6544 22.8965 30.667 19.9993 30.667C17.1026 30.667 16.7393 30.6544 15.6015 30.6026C14.4662 30.5506 13.6908 30.3708 13.0122 30.107C12.311 29.8346 11.7159 29.4693 11.1232 28.8759C10.5301 28.283 10.1657 27.6879 9.89301 26.9863C9.62946 26.3081 9.44968 25.533 9.39745 24.3974C9.3459 23.2596 9.33301 22.8972 9.33301 20.0003C9.33301 17.1034 9.34634 16.7396 9.39723 15.6018C9.44834 14.4667 9.62834 13.6913 9.89279 13.0129C10.1661 12.3115 10.5306 11.7164 11.1239 11.1235C11.7168 10.5304 12.3119 10.1659 13.0135 9.8935C13.6917 9.62972 14.4668 9.44994 15.6024 9.39794ZM19.6452 11.2557C19.4295 11.2556 19.2296 11.2555 19.0438 11.2558V11.2531C17.0558 11.2553 16.6745 11.2686 15.6905 11.3131C14.6504 11.3609 14.0858 11.5342 13.7098 11.6809C13.212 11.8747 12.8564 12.1058 12.4831 12.4791C12.1098 12.8524 11.8782 13.208 11.6849 13.7058C11.5389 14.0818 11.3651 14.6462 11.3175 15.6863C11.2664 16.8107 11.2562 17.1467 11.2562 19.9952C11.2562 22.8437 11.2664 23.1814 11.3175 24.3059C11.3649 25.3459 11.5389 25.9104 11.6849 26.2859C11.8786 26.7839 12.1098 27.1386 12.4831 27.5119C12.8564 27.8853 13.212 28.1164 13.7098 28.3097C14.086 28.4557 14.6504 28.6295 15.6905 28.6775C16.8149 28.7286 17.1525 28.7397 20.0007 28.7397C22.8488 28.7397 23.1865 28.7286 24.311 28.6775C25.351 28.6299 25.9159 28.4566 26.2915 28.3099C26.7895 28.1166 27.1439 27.8855 27.5172 27.5122C27.8906 27.139 28.1221 26.7846 28.3155 26.2868C28.4615 25.9112 28.6353 25.3468 28.6828 24.3068C28.7339 23.1823 28.745 22.8445 28.745 19.9979C28.745 17.1512 28.7339 16.8134 28.6828 15.6889C28.6355 14.6489 28.4615 14.0845 28.3155 13.7089C28.1217 13.2111 27.8906 12.8556 27.5172 12.4822C27.1441 12.1089 26.7892 11.8778 26.2915 11.6844C25.9155 11.5384 25.351 11.3646 24.311 11.3171C23.1863 11.266 22.8488 11.2558 20.0007 11.2558L19.6452 11.2557ZM14.5229 20.0001C14.5229 16.975 16.9756 14.5223 20.0008 14.5223C23.0258 14.5224 25.4777 16.9751 25.4777 20.0001C25.4777 23.0253 23.0259 25.4769 20.0008 25.4769C16.9756 25.4769 14.5229 23.0253 14.5229 20.0001ZM23.5563 20.0004C23.5563 18.0366 21.9643 16.4448 20.0007 16.4448C18.0369 16.4448 16.4451 18.0366 16.4451 20.0004C16.4451 21.964 18.0369 23.556 20.0007 23.556C21.9643 23.556 23.5563 21.964 23.5563 20.0004ZM24.4146 14.3065C24.4146 13.5996 24.9879 13.027 25.6946 13.027V13.0265C26.4012 13.0265 26.9746 13.5999 26.9746 14.3065C26.9746 15.0132 26.4012 15.5866 25.6946 15.5866C24.9879 15.5866 24.4146 15.0132 24.4146 14.3065Z" fill="white"/>
</svg>
