<svg width="40" height="40" viewBox="0 0 40 40" fill="none" xmlns="http://www.w3.org/2000/svg">
<path fill-rule="evenodd" clip-rule="evenodd" d="M16.6739 24.0684L16.6735 24.0681L16.674 24.0677L16.674 24.0675L16.6741 24.0676L25.9476 15.6989C26.3546 15.3377 25.8587 15.1615 25.3184 15.4892L13.8729 22.71L8.92909 21.167C7.86144 20.8401 7.85378 20.1064 9.16879 19.579L28.4338 12.1505C29.3137 11.751 30.1629 12.3618 29.827 13.7085L26.5462 29.169C26.3171 30.2676 25.6533 30.5304 24.7335 30.0229L19.7358 26.3306L17.3337 28.6664C17.3261 28.6737 17.3186 28.6811 17.3111 28.6884C17.0424 28.95 16.8201 29.1664 16.3337 29.1664L16.6739 24.0684Z" fill="white"/>
</svg>
