<svg width="100" height="100" viewBox="0 0 100 100" fill="none" xmlns="http://www.w3.org/2000/svg">
<path d="M75.8968 52.661H24.1031C21.6154 52.6582 19.5994 50.6423 19.5967 48.1546V15.6306C19.5996 13.1429 21.6154 11.1268 24.1031 11.1241H75.8968C78.3844 11.127 80.4005 13.1429 80.4032 15.6306V48.1546C80.4005 50.6423 78.3846 52.6583 75.8968 52.661ZM24.1031 13.4679C22.9092 13.4693 21.9418 14.4368 21.9404 15.6306V48.1546C21.9418 49.3485 22.9094 50.3159 24.1031 50.3173H75.8968C77.0907 50.3159 78.0581 49.3484 78.0594 48.1546V15.6306C78.0581 14.4366 77.0905 13.4693 75.8968 13.4679H24.1031Z" fill="#1E2E36"/>
<path d="M75.8968 81.8927H24.1031C21.6154 81.8899 19.5994 79.874 19.5967 77.3863V54.8239C19.5996 52.3363 21.6154 50.3202 24.1031 50.3175H75.8968C78.3844 50.3204 80.4005 52.3363 80.4032 54.8239V77.3863C80.4005 79.874 78.3846 81.8899 75.8968 81.8927ZM24.1031 52.6611C22.9092 52.6624 21.9418 53.63 21.9404 54.8238V77.3861C21.9418 78.5801 22.9094 79.5475 24.1031 79.5488H75.8968C77.0907 79.5475 78.0581 78.5799 78.0594 77.3861V54.8239C78.0581 53.63 77.0905 52.6626 75.8968 52.6613H24.1031V52.6611Z" fill="#1E2E36"/>
<path d="M95.4934 81.8927H82.566C80.0783 81.8899 78.0623 79.874 78.0596 77.3863V37.844C78.0624 35.3563 80.0783 33.3403 82.566 33.3376H95.4934C97.981 33.3405 99.9971 35.3563 99.9998 37.844V77.3861C99.9969 79.874 97.981 81.8899 95.4934 81.8927ZM82.5658 35.6813C81.3719 35.6827 80.4045 36.6503 80.4032 37.844V77.3861C80.4045 78.5801 81.3721 79.5475 82.5658 79.5488H95.4932C96.6871 79.5475 97.6545 78.5799 97.6559 77.3861V37.844C97.6545 36.6501 96.687 35.6827 95.4932 35.6813H82.5658Z" fill="#1E2E36"/>
<path d="M17.434 81.8927H4.5066C2.01875 81.8899 0.00287163 79.874 0 77.3861V37.844C0.00287163 35.3563 2.01875 33.3403 4.50643 33.3376H17.4338C19.9215 33.3405 21.9375 35.3563 21.9402 37.844V77.3861C21.9375 79.874 19.9217 81.8899 17.434 81.8927ZM4.50643 35.6813C3.31251 35.6827 2.34511 36.6503 2.34375 37.844V77.3861C2.34511 78.5801 3.31267 79.5475 4.50643 79.5488H17.4338C18.6277 79.5475 19.5951 78.5799 19.5965 77.3861V37.844C19.5951 36.6501 18.6276 35.6827 17.4338 35.6813H4.50643Z" fill="#1E2E36"/>
<path d="M79.2314 67.277H20.7685C20.1213 67.277 19.5967 66.7523 19.5967 66.1052C19.5967 65.4581 20.1213 64.9332 20.7685 64.9332H79.2314C79.8785 64.9332 80.4034 65.4579 80.4034 66.1052C80.4034 66.7525 79.8787 67.277 79.2314 67.277Z" fill="#1E2E36"/>
<path d="M10.9705 88.8758C9.02908 88.8782 7.33634 87.5557 6.86894 85.6714L5.70508 81.0042C5.54833 80.3763 5.93042 79.7403 6.55813 79.5836C6.65103 79.5604 6.7463 79.5486 6.84191 79.5488H15.099C15.7462 79.5488 16.2708 80.0733 16.2708 80.7204C16.2708 80.816 16.2592 80.9114 16.236 81.0042L15.072 85.6714C14.6046 87.5559 12.9119 88.8782 10.9705 88.8758V88.8758ZM8.34191 81.8927L9.14293 85.1044C9.39462 86.1137 10.4169 86.7278 11.4262 86.4762C12.1019 86.3076 12.6294 85.78 12.798 85.1044L13.599 81.8927H8.34191Z" fill="#1E2E36"/>
<path d="M89.0302 88.8759C87.0887 88.8783 85.3959 87.5558 84.9285 85.6715L83.7647 81.0044C83.6079 80.3766 83.99 79.7406 84.6177 79.5838C84.7106 79.5607 84.8059 79.5488 84.9015 79.549H93.1586C93.8057 79.549 94.3304 80.0735 94.3304 80.7206C94.3304 80.8162 94.3187 80.9117 94.2956 81.0044L93.1317 85.6715C92.6643 87.5558 90.9716 88.8783 89.0302 88.8759V88.8759ZM86.4017 81.8928L87.2025 85.1043C87.4542 86.1136 88.4765 86.7279 89.4858 86.4762C90.1616 86.3076 90.6892 85.7801 90.8577 85.1043L91.6586 81.8926L86.4017 81.8928Z" fill="#1E2E36"/>
</svg>
