<svg width="100" height="100" viewBox="0 0 100 100" fill="none" xmlns="http://www.w3.org/2000/svg">
<g clip-path="url(#clip0_121_81)">
<path d="M84.6856 33.76H15.3153C14.6682 33.76 14.1436 33.2353 14.1436 32.5882V8.24711C14.1436 7.59998 14.6682 7.07532 15.3153 7.07532H84.6856C85.3327 7.07532 85.8575 7.59998 85.8575 8.24711V32.5882C85.8574 33.2353 85.3327 33.76 84.6856 33.76ZM16.4871 31.4162H83.5136V9.4189H16.4871V31.4162Z" fill="#44C697"/>
<path d="M79.3069 33.7601H20.6933C20.0461 33.7601 19.5215 33.2354 19.5215 32.5883V13.6254C19.5215 12.9783 20.0461 12.4536 20.6933 12.4536H79.3069C79.954 12.4536 80.4789 12.9783 80.4789 13.6254V32.5881C80.4789 33.2354 79.9542 33.7601 79.3069 33.7601V33.7601ZM21.8652 31.4163H78.1351V14.7974H21.8652V31.4163Z" fill="#44C697"/>
<path d="M46.4659 33.76H24.2277C21.6298 33.7572 19.5245 31.6518 19.5215 29.054V17.1597C19.5244 14.5617 21.6298 12.4565 24.2277 12.4534H46.4659C49.0639 12.4563 51.1692 14.5617 51.1722 17.1597V29.054C51.1692 31.6519 49.0639 33.7572 46.4659 33.76V33.76ZM24.2277 14.7974C22.9237 14.7989 21.8668 15.8556 21.8652 17.1599V29.0541C21.8668 30.3582 22.9235 31.4151 24.2277 31.4165H46.4659C47.77 31.4151 48.8269 30.3582 48.8285 29.0541V17.1599C48.8269 15.8558 47.7702 14.7989 46.4659 14.7974H24.2277Z" fill="#44C697"/>
<path d="M75.7726 33.76H53.5344C50.9364 33.7572 48.8312 31.6518 48.8281 29.054V17.1597C48.831 14.5617 50.9364 12.4565 53.5344 12.4534H75.7726C78.3706 12.4563 80.4758 14.5617 80.4788 17.1597V29.054C80.4758 31.6519 78.3706 33.7572 75.7726 33.76V33.76ZM53.5344 14.7974C52.2303 14.7989 51.1734 15.8556 51.1719 17.1599V29.0541C51.1734 30.3582 52.2302 31.4151 53.5344 31.4165H75.7726C77.0766 31.4151 78.1336 30.3582 78.1351 29.0541V17.1599C78.1336 15.8558 77.0768 14.7989 75.7726 14.7974H53.5344Z" fill="#44C697"/>
<path d="M85.5332 92.9248H14.4668C11.869 92.9218 9.76378 90.8167 9.76074 88.2187V36.1223C9.76378 33.5245 11.869 31.4193 14.4668 31.4163H85.5332C88.1311 31.4191 90.2364 33.5244 90.2394 36.1223V88.2187C90.2364 90.8165 88.1311 92.9218 85.5332 92.9248ZM14.4668 33.76C13.1628 33.7614 12.1058 34.8183 12.1043 36.1223V88.2187C12.1058 89.5228 13.1626 90.5795 14.4668 90.5811H85.5332C86.8372 90.5795 87.894 89.5228 87.8955 88.2187V36.1223C87.894 34.8183 86.8372 33.7614 85.5332 33.76H14.4668Z" fill="#44C697"/>
<path d="M85.9844 9.41893H14.0158C11.6668 9.41623 9.76344 7.51268 9.76074 5.16386V4.25507C9.76344 1.90625 11.6668 0.00270271 14.0158 0H85.9844C88.3333 0.00270271 90.2367 1.90625 90.2394 4.25507V5.16386C90.2367 7.51285 88.3332 9.41623 85.9844 9.41893ZM14.0158 2.34375C12.9607 2.34494 12.1057 3.20001 12.1045 4.25507V5.16386C12.1057 6.21893 12.9607 7.074 14.0158 7.07518H85.9844C87.0394 7.074 87.8945 6.21893 87.8957 5.16386V4.25507C87.8945 3.20001 87.0394 2.34494 85.9844 2.34375H14.0158Z" fill="#44C697"/>
<path d="M85.9844 99.9999H14.0158C11.6668 99.9972 9.76344 98.0937 9.76074 95.7448V94.8361C9.76344 92.4871 11.667 90.5837 14.0158 90.581H85.9844C88.3333 90.5837 90.2367 92.4872 90.2394 94.8361V95.7448C90.2367 98.0937 88.3332 99.9972 85.9844 99.9999ZM14.0158 92.9247C12.9607 92.9259 12.1057 93.781 12.1045 94.8361V95.7448C12.1057 96.7999 12.9607 97.655 14.0158 97.6562H85.9844C87.0394 97.655 87.8945 96.7999 87.8957 95.7448V94.8361C87.8945 93.781 87.0394 92.9259 85.9844 92.9247H14.0158Z" fill="#44C697"/>
</g>
<defs>
<clipPath id="clip0_121_81">
<rect width="100" height="100" fill="white"/>
</clipPath>
</defs>
</svg>
