<svg width="100" height="100" viewBox="0 0 100 100" fill="none" xmlns="http://www.w3.org/2000/svg">
<g clip-path="url(#clip0_121_120)">
<path d="M67.7877 91.1304H32.2118C31.5647 91.1304 31.04 90.6057 31.04 89.9584V62.7136C31.04 62.0665 31.5647 61.5416 32.2118 61.5416H67.7877C68.4349 61.5416 68.9597 62.0663 68.9597 62.7136V89.9584C68.9595 90.6057 68.4349 91.1304 67.7877 91.1304ZM33.3838 88.7866H66.6159V63.8855H33.3838V88.7866Z" fill="#1E2E36"/>
<path d="M67.7877 96.1448H32.2118C31.5647 96.1448 31.04 95.6201 31.04 94.9728V89.9585C31.04 89.3113 31.5647 88.7865 32.2118 88.7865H67.7877C68.4349 88.7865 68.9597 89.3112 68.9597 89.9585V94.9728C68.9595 95.6201 68.4349 96.1448 67.7877 96.1448ZM33.3838 93.801H66.6159V91.1304H33.3838V93.801Z" fill="#1E2E36"/>
<path d="M67.7877 63.8855H32.2118C31.5647 63.8855 31.04 63.3608 31.04 62.7137V51.1623C31.04 50.5152 31.5647 49.9904 32.2118 49.9904H67.7877C68.4349 49.9904 68.9597 50.515 68.9597 51.1623V62.7137C68.9595 63.3608 68.4349 63.8855 67.7877 63.8855ZM33.3838 61.5417H66.6159V52.3341H33.3838V61.5417Z" fill="#1E2E36"/>
<path d="M50 60.7357C47.9025 60.7357 46.2021 59.0354 46.2021 56.9381C46.2021 54.8408 47.9025 53.1403 49.9998 53.1403C52.0973 53.1403 53.7976 54.8406 53.7976 56.9379C53.7954 59.0345 52.0964 60.7333 50 60.7357V60.7357ZM50 55.484C49.1969 55.484 48.5459 56.135 48.5459 56.9379C48.5459 57.7409 49.1969 58.392 49.9998 58.392C50.8028 58.392 51.4539 57.7409 51.4539 56.9381C51.4532 56.1354 50.8027 55.4849 50 55.484Z" fill="#1E2E36"/>
<path d="M59.8672 60.7357C57.7697 60.7357 56.0693 59.0354 56.0693 56.9381C56.0693 54.8406 57.7697 53.1403 59.867 53.1403C61.9645 53.1403 63.6648 54.8406 63.6648 56.9379C63.6626 59.0345 61.9636 60.7333 59.8672 60.7357V60.7357ZM59.8672 55.484C59.0641 55.484 58.4131 56.135 58.4131 56.9379C58.4131 57.7409 59.0641 58.392 59.867 58.392C60.67 58.392 61.321 57.7409 61.321 56.9381C61.3202 56.1354 60.6699 55.485 59.8672 55.484V55.484Z" fill="#1E2E36"/>
<path d="M40.1328 60.7358C38.0353 60.7358 36.335 59.0354 36.335 56.9379C36.335 54.8405 38.0353 53.1401 40.1328 53.1401C42.2302 53.1401 43.9306 54.8405 43.9306 56.9379C43.9282 59.0346 42.2292 60.7334 40.1328 60.7358ZM40.1328 55.4841C39.3297 55.4841 38.6787 56.1351 38.6787 56.9381C38.6787 57.7412 39.3297 58.3922 40.1328 58.3922C40.9358 58.3922 41.5868 57.7412 41.5868 56.9381C41.586 56.1354 40.9355 55.4849 40.1328 55.4841Z" fill="#1E2E36"/>
<path d="M60.9089 70.737H39.0918C37.5697 70.7363 36.3362 69.502 36.3369 67.9799C36.3376 66.4586 37.5705 65.2255 39.0918 65.225H60.9089C62.431 65.2243 63.6655 66.4577 63.666 67.9799C63.6667 69.502 62.4332 70.7365 60.9111 70.737C60.9103 70.737 60.9096 70.737 60.9089 70.737ZM39.0918 67.5686C38.8641 67.5687 38.6797 67.7535 38.6798 67.9812C38.68 68.2088 38.8643 68.393 39.0918 68.3932H60.9089C61.1366 68.3934 61.3214 68.2089 61.3216 67.9812C61.3218 67.7535 61.1373 67.5687 60.9096 67.5686C60.9094 67.5686 60.9091 67.5686 60.9089 67.5686H39.0918Z" fill="#1E2E36"/>
<path d="M59.8666 87.389H40.1327C39.4856 87.389 38.9609 86.8643 38.9609 86.217V69.5648C38.9609 68.9177 39.4856 68.3928 40.1327 68.3928H59.8666C60.5137 68.3928 61.0383 68.9175 61.0383 69.5648V86.217C61.0385 86.8643 60.5139 87.389 59.8666 87.389ZM41.3047 85.0452H58.6948V70.7367H41.3047V85.0452Z" fill="#1E2E36"/>
<path d="M42.1913 52.3343C41.5442 52.3343 41.0195 51.8096 41.0195 51.1623V48.2544C41.0195 47.6072 41.5442 47.0824 42.1913 47.0824C42.8385 47.0824 43.3633 47.6071 43.3633 48.2544V51.1623C43.3633 51.8096 42.8386 52.3343 42.1913 52.3343V52.3343Z" fill="#1E2E36"/>
<path d="M47.7471 52.3344C47.1 52.3344 46.5753 51.8097 46.5753 51.1624V49.4261H45.0128C44.3657 49.4261 43.8408 48.9014 43.8408 48.2541C43.8408 47.6068 44.3655 47.0822 45.0128 47.0822H47.7471C48.3942 47.0822 48.919 47.6068 48.919 48.2541V51.1624C48.9189 51.8097 48.3942 52.3344 47.7471 52.3344Z" fill="#1E2E36"/>
<path d="M36.6358 52.3344C35.9887 52.3344 35.4639 51.8097 35.4639 51.1624V48.2541C35.4639 47.607 35.9885 47.0822 36.6358 47.0822H39.3701C40.0173 47.0822 40.5419 47.6068 40.5419 48.2541C40.5419 48.9014 40.0173 49.4261 39.3701 49.4261H37.8076V51.1624C37.8078 51.8097 37.2831 52.3344 36.6358 52.3344Z" fill="#1E2E36"/>
<path d="M57.8087 52.3343C57.1615 52.3343 56.6367 51.8096 56.6367 51.1623V48.2544C56.6367 47.6072 57.1614 47.0824 57.8087 47.0824C58.456 47.0824 58.9805 47.6071 58.9805 48.2544V51.1623C58.9805 51.8096 58.4558 52.3343 57.8087 52.3343Z" fill="#1E2E36"/>
<path d="M52.253 52.3344C51.6059 52.3344 51.0811 51.8097 51.0811 51.1624V48.2541C51.0811 47.607 51.6057 47.0822 52.253 47.0822H54.9873C55.6344 47.0822 56.1593 47.6068 56.1593 48.2541C56.1593 48.9014 55.6346 49.4261 54.9873 49.4261H53.4248V51.1624C53.425 51.8097 52.9003 52.3344 52.253 52.3344Z" fill="#1E2E36"/>
<path d="M63.3641 52.3344C62.717 52.3344 62.1923 51.8097 62.1923 51.1624V49.4261H60.6298C59.9827 49.4261 59.458 48.9014 59.458 48.2541C59.458 47.6068 59.9827 47.0822 60.6298 47.0822H63.3641C64.0112 47.0822 64.536 47.6068 64.536 48.2541V51.1624C64.5359 51.8097 64.0112 52.3344 63.3641 52.3344Z" fill="#1E2E36"/>
<path d="M73.4522 56.6021H71.3544C70.7073 56.6021 70.1826 56.0774 70.1826 55.4303C70.1826 54.7831 70.7073 54.2583 71.3544 54.2583H73.4524C74.0995 54.2583 74.6242 54.783 74.6242 55.4303C74.6242 56.0776 74.0995 56.6021 73.4522 56.6021V56.6021Z" fill="#1E2E36"/>
<path d="M77.0183 96.1447H67.788C67.1409 96.1447 66.6162 95.62 66.6162 94.9727V51.1622C66.6162 50.515 67.1409 49.9904 67.788 49.9904H77.0183C77.6654 49.9904 78.1902 50.515 78.1902 51.1622V94.9727C78.1901 95.62 77.6654 96.1447 77.0183 96.1447ZM68.9598 93.8009H75.8463V52.3341H68.9598V93.8009Z" fill="#1E2E36"/>
<path d="M98.8283 74.2394H77.0185C76.3713 74.2394 75.8467 73.7147 75.8467 73.0676V51.1623C75.8467 50.5152 76.3713 49.9904 77.0185 49.9904H98.8285C99.4756 49.9904 100 50.515 100 51.1623V73.0676C100 73.7147 99.4756 74.2394 98.8283 74.2394ZM78.1903 71.8956H97.6565V52.3341H78.1903V71.8956Z" fill="#1E2E36"/>
<path d="M90.734 56.6021H85.1132C84.4661 56.6021 83.9414 56.0774 83.9414 55.4303C83.9414 54.7831 84.4661 54.2583 85.1132 54.2583H90.734C91.3811 54.2583 91.906 54.783 91.906 55.4303C91.906 56.0776 91.3811 56.6021 90.734 56.6021Z" fill="#1E2E36"/>
<path d="M19.5025 56.6021H13.8818C13.2346 56.6021 12.71 56.0774 12.71 55.4303C12.71 54.7831 13.2346 54.2583 13.8818 54.2583H19.5024C20.1495 54.2583 20.6742 54.783 20.6742 55.4303C20.6742 56.0776 20.1497 56.6021 19.5025 56.6021V56.6021Z" fill="#1E2E36"/>
<path d="M98.8283 96.1447H77.0185C76.3713 96.1447 75.8467 95.62 75.8467 94.9727V73.0676C75.8467 72.4205 76.3713 71.8956 77.0185 71.8956H98.8285C99.4756 71.8956 100 72.4203 100 73.0676V94.9727C100 95.62 99.4756 96.1447 98.8283 96.1447ZM78.1903 93.8009H97.6565V74.2394H78.1903V93.8009Z" fill="#1E2E36"/>
<path d="M90.734 78.5072H85.1132C84.4661 78.5072 83.9414 77.9825 83.9414 77.3352C83.9414 76.6881 84.4661 76.1635 85.1132 76.1635H90.734C91.3811 76.1635 91.906 76.6881 91.906 77.3352C91.9058 77.9825 91.3811 78.5072 90.734 78.5072Z" fill="#1E2E36"/>
<path d="M16.6919 96.1447H1.17179C0.524663 96.1447 0 95.6201 0 94.9728V62.7136C0 62.0665 0.524663 61.5416 1.17179 61.5416H16.6919C17.3391 61.5416 17.8637 62.0663 17.8637 62.7136V94.9728C17.8639 95.6201 17.3392 96.1447 16.6919 96.1447ZM2.34375 93.801H15.5201V63.8855H2.34375V93.801Z" fill="#1E2E36"/>
<path d="M32.2124 96.1447H16.6923C16.0452 96.1447 15.5205 95.6201 15.5205 94.9728V62.7136C15.5205 62.0665 16.0452 61.5416 16.6923 61.5416H32.2124C32.8596 61.5416 33.3842 62.0663 33.3842 62.7136V94.9728C33.3844 95.6201 32.8597 96.1447 32.2124 96.1447ZM17.8643 93.801H31.0406V63.8855H17.8643V93.801Z" fill="#1E2E36"/>
<path d="M20.3974 81.9657C19.7502 81.9657 19.2256 81.441 19.2256 80.7939V76.8929C19.2256 76.2457 19.7502 75.7211 20.3974 75.7211C21.0445 75.7211 21.5692 76.2457 21.5692 76.8929V80.794C21.5692 81.441 21.0445 81.9657 20.3974 81.9657V81.9657Z" fill="#1E2E36"/>
<path d="M12.9862 81.9657C12.3391 81.9657 11.8145 81.441 11.8145 80.7939V76.8929C11.8145 76.2457 12.3391 75.7211 12.9862 75.7211C13.6334 75.7211 14.158 76.2457 14.158 76.8929V80.794C14.158 81.441 13.6334 81.9657 12.9862 81.9657V81.9657Z" fill="#1E2E36"/>
<path d="M32.212 63.8855H1.17179C0.524663 63.8855 0 63.3608 0 62.7137V51.1623C0 50.5152 0.524663 49.9904 1.17179 49.9904H32.212C32.8592 49.9904 33.3838 50.515 33.3838 51.1623V62.7137C33.384 63.3608 32.8593 63.8855 32.212 63.8855ZM2.34375 61.5417H31.0403V52.3341H2.34375V61.5417Z" fill="#1E2E36"/>
<path d="M66.4666 27.7771H33.533C32.1568 27.7755 31.0416 26.6603 31.04 25.2841V21.9188C31.0416 20.5426 32.1568 19.4275 33.533 19.426H66.4668C67.843 19.4275 68.9582 20.5428 68.9597 21.9189V25.2843C68.9582 26.6603 67.8428 27.7755 66.4666 27.7771V27.7771ZM33.533 21.7696C33.4507 21.7698 33.384 21.8365 33.3838 21.9188V25.2841C33.384 25.3664 33.4507 25.4331 33.533 25.4333H66.4668C66.549 25.4331 66.6158 25.3664 66.6159 25.2841V21.9188C66.6158 21.8365 66.549 21.7698 66.4668 21.7696H33.533Z" fill="#1E2E36"/>
<path d="M64.0245 21.7696H35.9763C34.6126 21.7696 33.507 20.6642 33.5068 19.3005C33.5068 18.5409 33.8563 17.8236 34.4546 17.3556L35.3552 16.651C38.9413 13.8627 41.0332 9.57008 41.0195 5.02751C41.0195 4.38038 41.5442 3.85571 42.1913 3.85571H57.8091C58.4562 3.85571 58.9809 4.38038 58.9809 5.02751C58.9672 9.57008 61.0591 13.8627 64.6454 16.651L65.5458 17.3556C66.6199 18.1958 66.8096 19.7476 65.9694 20.8216C65.5017 21.4201 64.7841 21.7698 64.0245 21.7696V21.7696ZM43.3241 6.1993C43.0063 11.0426 40.6315 15.5184 36.7994 18.497L35.8987 19.2015C35.8442 19.2443 35.8345 19.3231 35.8773 19.3777C35.9011 19.4081 35.9376 19.4258 35.9761 19.4258H64.0245C64.0937 19.4258 64.15 19.3696 64.15 19.3003C64.15 19.2618 64.1322 19.2253 64.102 19.2017H64.1018L63.2015 18.4971C59.3692 15.5186 56.9945 11.0427 56.6768 6.19947H43.3241V6.1993Z" fill="#1E2E36"/>
<path d="M95.1999 27.7771H76.5513C74.9293 27.7771 73.6143 26.4622 73.6143 24.8401C73.6143 23.2179 74.9291 21.9031 76.5513 21.9031H95.1999C96.8219 21.9031 98.1369 23.2179 98.1369 24.8401C98.1369 26.4622 96.8219 27.7771 95.1999 27.7771ZM76.5513 24.247C76.2237 24.247 75.958 24.5125 75.958 24.8402C75.958 25.1678 76.2236 25.4335 76.5513 25.4335H95.1999C95.5275 25.4335 95.7932 25.168 95.7932 24.8402C95.7932 24.5127 95.5276 24.247 95.1999 24.247H76.5513Z" fill="#1E2E36"/>
<path d="M23.448 27.7771H4.7993C3.17734 27.7771 1.8623 26.4622 1.8623 24.8401C1.8623 23.2179 3.17717 21.9031 4.7993 21.9031H23.448C25.0699 21.9031 26.385 23.2179 26.385 24.8401C26.385 26.4622 25.0701 27.7771 23.448 27.7771ZM4.7993 24.247C4.47177 24.247 4.20606 24.5125 4.20606 24.8402C4.20606 25.1678 4.4716 25.4335 4.7993 25.4335H23.448C23.7755 25.4335 24.0412 25.168 24.0412 24.8402C24.0412 24.5127 23.7757 24.247 23.448 24.247H4.7993Z" fill="#1E2E36"/>
<path d="M21.5775 24.247H16.8105C16.1633 24.247 15.6387 23.7223 15.6387 23.0752V19.0463C15.6387 18.3992 16.1633 17.8745 16.8105 17.8745H21.5775C22.2247 17.8745 22.7493 18.3992 22.7493 19.0463V23.0752C22.7495 23.7223 22.2248 24.247 21.5775 24.247V24.247ZM17.9824 21.9032H20.4057V20.2181H17.9824V21.9032Z" fill="#1E2E36"/>
<path d="M22.7006 20.2181H15.6874C15.0403 20.2181 14.5156 19.6934 14.5156 19.0463C14.5156 18.3992 15.0403 17.8745 15.6874 17.8745H22.7006C23.3477 17.8745 23.8724 18.3992 23.8724 19.0463C23.8724 19.6934 23.3477 20.2181 22.7006 20.2181Z" fill="#1E2E36"/>
<path d="M11.4379 24.247H6.67082C6.02369 24.247 5.49902 23.7223 5.49902 23.0752V19.0463C5.49902 18.3992 6.02369 17.8745 6.67082 17.8745H11.4379C12.085 17.8745 12.6097 18.3992 12.6097 19.0463V23.0752C12.6097 23.7223 12.085 24.247 11.4379 24.247ZM7.84261 21.9032H10.2659V20.2181H7.84278L7.84261 21.9032Z" fill="#1E2E36"/>
<path d="M12.5608 20.2181H5.54777C4.90064 20.2181 4.37598 19.6934 4.37598 19.0463C4.37598 18.3992 4.90064 17.8745 5.54777 17.8745H12.561C13.2081 17.8745 13.7327 18.3992 13.7327 19.0463C13.7327 19.6934 13.2081 20.2181 12.5608 20.2181Z" fill="#1E2E36"/>
<path d="M21.5775 20.218H16.8105C16.1633 20.218 15.6387 19.6933 15.6387 19.0462V15.0175C15.6387 14.3704 16.1633 13.8457 16.8105 13.8457H21.5775C22.2247 13.8457 22.7493 14.3704 22.7493 15.0175V19.0462C22.7495 19.6933 22.2248 20.218 21.5775 20.218V20.218ZM17.9824 17.8743H20.4057V16.1893H17.9824V17.8743Z" fill="#1E2E36"/>
<path d="M22.7006 16.1893H15.6874C15.0403 16.1893 14.5156 15.6646 14.5156 15.0175C14.5156 14.3704 15.0403 13.8457 15.6874 13.8457H22.7006C23.3477 13.8457 23.8724 14.3704 23.8724 15.0175C23.8724 15.6646 23.3477 16.1893 22.7006 16.1893Z" fill="#1E2E36"/>
<path d="M11.4379 20.218H6.67082C6.02369 20.218 5.49902 19.6933 5.49902 19.0462V15.0175C5.49902 14.3704 6.02369 13.8457 6.67082 13.8457H11.4379C12.085 13.8457 12.6097 14.3704 12.6097 15.0175V19.0462C12.6097 19.6933 12.085 20.218 11.4379 20.218V20.218ZM7.84261 17.8743H10.2659V16.1893H7.84278L7.84261 17.8743Z" fill="#1E2E36"/>
<path d="M12.5608 16.1893H5.54777C4.90064 16.1893 4.37598 15.6646 4.37598 15.0175C4.37598 14.3704 4.90064 13.8457 5.54777 13.8457H12.561C13.2081 13.8457 13.7327 14.3704 13.7327 15.0175C13.7327 15.6646 13.2081 16.1893 12.5608 16.1893Z" fill="#1E2E36"/>
<path d="M85.8755 24.2471C81.698 24.2464 78.3118 20.8592 78.3125 16.6817C78.3127 15.2589 78.7142 13.8648 79.4709 12.6599C79.6855 12.3192 80.06 12.1124 80.4627 12.1124H91.2882C91.6907 12.1124 92.0651 12.319 92.2796 12.6597C94.5015 16.1972 93.435 20.8663 89.8975 23.0883C88.6926 23.8452 87.2985 24.2467 85.8755 24.2471V24.2471ZM81.1542 14.4562C79.9258 17.0638 81.0439 20.1734 83.6515 21.4018C86.2591 22.6302 89.3688 21.5121 90.5971 18.9045C91.2607 17.4961 91.2607 15.8648 90.5971 14.4563H81.1542V14.4562Z" fill="#1E2E36"/>
<path d="M85.7667 14.4561C85.1196 14.4561 84.5947 13.9315 84.5947 13.2843V5.74479C84.5947 5.09766 85.1194 4.573 85.7667 4.573C86.414 4.573 86.9385 5.09766 86.9385 5.74479V13.2843C86.9385 13.9315 86.4138 14.4561 85.7667 14.4561V14.4561Z" fill="#1E2E36"/>
<path d="M85.7665 14.4562C85.1194 14.4562 84.5947 13.9313 84.5947 13.2842C84.5947 12.9734 84.7182 12.6754 84.938 12.4556L88.9931 8.40057C89.4552 7.94753 90.1973 7.95513 90.6503 8.4173C91.0969 8.87304 91.0969 9.60227 90.6502 10.0578L86.5951 14.1129C86.3755 14.333 86.0773 14.4567 85.7665 14.4562V14.4562Z" fill="#1E2E36"/>
<path d="M85.767 14.4562C85.4562 14.4565 85.1579 14.333 84.9384 14.1129L80.8834 10.0578C80.4209 9.60514 80.4129 8.86308 80.8658 8.40058C81.3185 7.93808 82.0606 7.93014 82.5231 8.38301C82.529 8.38875 82.5347 8.39466 82.5406 8.40058L86.5957 12.4556C87.0533 12.9133 87.0533 13.6553 86.5957 14.1129C86.3758 14.3327 86.0776 14.4562 85.767 14.4562Z" fill="#1E2E36"/>
<path d="M60.8568 49.4261H55.1418C51.9012 49.4224 49.2752 46.7964 49.2715 43.5558V40.8011C49.2715 40.154 49.7962 39.6292 50.4434 39.6292H65.5551C66.2023 39.6292 66.7271 40.1538 66.7271 40.8011V43.5558C66.7234 46.7964 64.0974 49.4224 60.8568 49.4261ZM51.6154 41.9731V43.556C51.6176 45.5028 53.1951 47.0803 55.1419 47.0825H60.857C62.8038 47.0803 64.3813 45.5028 64.3835 43.556V41.9731H51.6154Z" fill="#1E2E36"/>
<path d="M67.7882 44.0384H65.5558C64.9086 44.0384 64.3838 43.5137 64.3838 42.8666C64.3838 42.2195 64.9085 41.6948 65.5558 41.6948H67.7882C68.4353 41.6948 68.9602 42.2195 68.9602 42.8666C68.9602 43.5137 68.4353 44.0384 67.7882 44.0384Z" fill="#1E2E36"/>
<path d="M50.0624 44.0384H47.83C47.1829 44.0384 46.6582 43.5137 46.6582 42.8666C46.6582 42.2195 47.1829 41.6948 47.83 41.6948H50.0624C50.7096 41.6948 51.2344 42.2195 51.2344 42.8666C51.2344 43.5137 50.7097 44.0384 50.0624 44.0384Z" fill="#1E2E36"/>
<path d="M65.5551 41.9731H50.4434C49.7963 41.9731 49.2715 41.4485 49.2715 40.8013C49.2715 40.5643 49.3433 40.3329 49.4776 40.1375C51.1171 37.7518 54.3823 36.2699 57.9992 36.2699C61.6161 36.2699 64.8811 37.7518 66.5208 40.1375C66.8874 40.6707 66.7522 41.4005 66.219 41.767C66.0237 41.9012 65.7923 41.9731 65.5551 41.9731ZM53.5902 39.6294H62.4083C59.6249 38.2748 56.3735 38.2748 53.5902 39.6294V39.6294Z" fill="#1E2E36"/>
<path d="M56.5689 38.7026C56.2819 38.703 56.0047 38.5976 55.7905 38.4063C54.4159 37.1859 54.2909 35.082 55.5113 33.7072C56.7318 32.3325 58.8357 32.2075 60.2105 33.428C61.5852 34.6484 61.7101 36.7523 60.4897 38.1271C60.4024 38.2256 60.3091 38.3187 60.2107 38.4062C59.7299 38.8394 58.9889 38.8009 58.5556 38.3202C58.1223 37.8394 58.1608 37.0984 58.6416 36.6651C58.6453 36.6617 58.649 36.6584 58.6527 36.6552C59.0605 36.2948 59.0988 35.6724 58.7387 35.2648C58.3784 34.8572 57.7559 34.8187 57.3483 35.1788C56.9407 35.5391 56.9022 36.1616 57.2623 36.5692C57.2892 36.5996 57.3177 36.6281 57.3481 36.655C57.8318 37.0851 57.8752 37.8258 57.4451 38.3094C57.2225 38.5597 56.9037 38.7026 56.5689 38.7026V38.7026Z" fill="#1E2E36"/>
<path d="M13.9029 52.3342H8.95304C8.30591 52.3342 7.78125 51.8096 7.78125 51.1623V38.5752C7.78125 37.9281 8.30591 37.4034 8.95304 37.4034H13.9029C14.55 37.4034 15.0747 37.9281 15.0747 38.5752V51.1623C15.0748 51.8096 14.5502 52.3342 13.9029 52.3342ZM10.125 49.9905H12.7311V39.7472H10.125V49.9905Z" fill="#1E2E36"/>
<path d="M8.95349 52.3342H4.00382C3.35669 52.3342 2.83203 51.8096 2.83203 51.1623V38.5752C2.83203 37.9281 3.35669 37.4034 4.00382 37.4034H8.95349C9.60062 37.4034 10.1253 37.9281 10.1253 38.5752V51.1623C10.1255 51.8096 9.60079 52.3342 8.95349 52.3342ZM5.17562 49.9905H7.78153V39.7472H5.17579L5.17562 49.9905Z" fill="#1E2E36"/>
<path d="M24.7745 52.3342H22.5645C20.3284 52.3317 18.5164 50.5195 18.5137 48.2834V44.1744C18.5137 43.5273 19.0383 43.0024 19.6855 43.0024H27.6534C28.3005 43.0024 28.8252 43.5271 28.8252 44.1744V48.2834C28.8228 50.5195 27.0107 52.3317 24.7745 52.3342V52.3342ZM20.8576 45.3462V48.2834C20.8586 49.2258 21.6223 49.9893 22.5647 49.9905H24.7745C25.7169 49.9894 26.4806 49.2258 26.4816 48.2834V45.3464H20.8576V45.3462Z" fill="#1E2E36"/>
<path d="M28.3383 45.3461H18.9996C17.7777 45.3448 16.7875 44.3546 16.7861 43.1326V41.9173C16.7875 40.6953 17.7779 39.7051 18.9996 39.7037H28.3383C29.5603 39.7051 30.5505 40.6953 30.5519 41.9173V43.1326C30.5505 44.3546 29.5603 45.3448 28.3383 45.3461ZM19.1299 43.0024H28.2083V42.0475H19.1299V43.0024Z" fill="#1E2E36"/>
<path d="M77.9697 52.3342H71.9364C71.2893 52.3342 70.7646 51.8096 70.7646 51.1623V42.9156C70.7646 42.2685 71.2893 41.7437 71.9364 41.7437H77.9697C78.6169 41.7437 79.1417 42.2683 79.1417 42.9156V51.1623C79.1415 51.8096 78.6169 52.3342 77.9697 52.3342ZM73.1084 49.9905H76.7979V44.0876H73.1084V49.9905Z" fill="#1E2E36"/>
<path d="M77.9697 44.0876H71.9364C71.2893 44.0876 70.7646 43.5629 70.7646 42.9158V39.3134C70.7646 38.6663 71.2893 38.1415 71.9364 38.1415H77.9697C78.6169 38.1415 79.1417 38.6661 79.1417 39.3134V42.9158C79.1415 43.5629 78.6169 44.0876 77.9697 44.0876ZM73.1084 41.7438H76.7979V40.4852H73.1084V41.7438Z" fill="#1E2E36"/>
<path d="M92.4368 48.3708C90.5223 48.3708 89.0225 46.5278 89.0225 44.1749C89.0225 41.822 90.5221 39.9788 92.4368 39.9788C94.3514 39.9788 95.8512 41.822 95.8512 44.1749C95.8512 46.5278 94.3514 48.3708 92.4368 48.3708ZM92.4368 42.3225C91.9314 42.3225 91.3662 43.1146 91.3662 44.1749C91.3662 45.235 91.9314 46.0271 92.4368 46.0271C92.9422 46.0271 93.5074 45.235 93.5074 44.1749C93.5074 43.1147 92.9422 42.3225 92.4368 42.3225Z" fill="#1E2E36"/>
<path d="M92.4368 42.3003C91.8905 42.3003 91.4165 41.9227 91.2945 41.3901L89.5035 33.5766C89.1322 31.9565 90.1443 30.3421 91.7645 29.9707C93.3846 29.5992 94.9989 30.6116 95.3704 32.2317C95.4719 32.6742 95.4719 33.134 95.3704 33.5766L93.5792 41.3901C93.4569 41.9227 92.983 42.3003 92.4368 42.3003V42.3003ZM92.4368 32.2386C92.0692 32.2386 91.771 32.5366 91.771 32.9043C91.771 32.9543 91.7766 33.0043 91.7879 33.0531L92.4368 35.8839L93.0857 33.0533C93.168 32.695 92.944 32.3378 92.5857 32.2557C92.5369 32.2442 92.4869 32.2386 92.4368 32.2386Z" fill="#1E2E36"/>
<path d="M84.0073 42.3001C83.461 42.3001 82.987 41.9226 82.8651 41.3901L81.0738 33.5766C80.7024 31.9565 81.7147 30.342 83.3348 29.9707C84.9549 29.5992 86.5695 30.6116 86.9408 32.2317C87.0423 32.6742 87.0423 33.134 86.9408 33.5766L85.1495 41.3901C85.0276 41.9227 84.5536 42.3001 84.0073 42.3001V42.3001ZM84.0073 32.2384C83.6396 32.2384 83.3416 32.5364 83.3416 32.9041C83.3416 32.9543 83.3472 33.0041 83.3585 33.0531L84.0073 35.8839L84.6561 33.0531C84.7384 32.6947 84.5144 32.3376 84.1561 32.2555C84.1073 32.244 84.0575 32.2384 84.0073 32.2384V32.2384Z" fill="#1E2E36"/>
<path d="M86.701 46.0877H81.3154C80.7324 46.0877 80.2382 45.6592 80.1554 45.0822C79.9531 43.7295 80.3483 42.3556 81.2384 41.3171C81.9955 40.4436 83.0049 39.9426 84.0081 39.9426C85.0113 39.9426 86.0211 40.4436 86.7784 41.3171C87.6683 42.3556 88.0634 43.7296 87.861 45.0822C87.7782 45.6594 87.284 46.0877 86.701 46.0877ZM82.5358 43.744H85.4808C85.3917 43.4151 85.2299 43.1104 85.0073 42.8523C84.7093 42.5085 84.3173 42.2864 84.0081 42.2864C83.699 42.2864 83.3071 42.5085 83.0093 42.8523C82.7868 43.1102 82.6249 43.4151 82.5358 43.744Z" fill="#1E2E36"/>
</g>
<defs>
<clipPath id="clip0_121_120">
<rect width="100" height="100" fill="white"/>
</clipPath>
</defs>
</svg>
