<svg width="100" height="100" viewBox="0 0 100 100" fill="none" xmlns="http://www.w3.org/2000/svg">
<g clip-path="url(#clip0_121_64)">
<path d="M46.665 87.1791H16.7642C14.2766 87.1762 12.2605 85.1603 12.2578 82.6726V71.0569C12.2607 68.5692 14.2766 66.5532 16.7642 66.5505H46.665C49.1526 66.5533 51.1687 68.5692 51.1714 71.0569V82.6726C51.1685 85.1603 49.1526 87.1764 46.665 87.1791ZM16.7642 68.8941C15.5703 68.8954 14.6027 69.863 14.6016 71.0567V82.6725C14.6029 83.8664 15.5705 84.834 16.7642 84.8351H46.665C47.8589 84.8338 48.8263 83.8662 48.8276 82.6725V71.0567C48.8263 69.8628 47.8587 68.8954 46.665 68.8941H16.7642Z" fill="#1E2E36"/>
<path d="M10.0955 87.1791H4.50643C2.01875 87.1764 0.00287163 85.1603 0 82.6726V60.4356C0.00287163 57.948 2.01875 55.9319 4.50643 55.9292H10.0953C12.583 55.9321 14.599 57.948 14.6017 60.4356V82.6726C14.599 85.1603 12.5831 87.1764 10.0955 87.1791V87.1791ZM4.50643 58.273C3.31251 58.2743 2.34511 59.2417 2.34375 60.4356V82.6726C2.34511 83.8666 3.31267 84.834 4.50643 84.8353H10.0953C11.2892 84.834 12.2566 83.8664 12.258 82.6726V60.4356C12.2566 59.2417 11.2892 58.2741 10.0953 58.273H4.50643Z" fill="#1E2E36"/>
<path d="M86.5694 78.0366H13.4296C12.7825 78.0366 12.2578 77.5119 12.2578 76.8648C12.2578 76.2176 12.7825 75.6928 13.4296 75.6928H86.5696C87.2167 75.6928 87.7414 76.2175 87.7414 76.8648C87.7414 77.5121 87.2167 78.0366 86.5694 78.0366Z" fill="#1E2E36"/>
<path d="M46.665 68.894H16.7642C14.2766 68.8911 12.2605 66.8753 12.2578 64.3876V46.5406C12.2607 44.0529 14.2766 42.0369 16.7642 42.0342H46.665C49.1526 42.0371 51.1687 44.0529 51.1714 46.5406V64.3876C51.1685 66.8753 49.1526 68.8913 46.665 68.894ZM16.7642 44.3778C15.5703 44.3791 14.6027 45.3465 14.6016 46.5404V64.3874C14.6029 65.5813 15.5705 66.5489 16.7642 66.5501H46.665C47.8589 66.5487 48.8263 65.5812 48.8276 64.3874V46.5406C48.8263 45.3467 47.8587 44.3791 46.665 44.3779L16.7642 44.3778Z" fill="#1E2E36"/>
<path d="M83.2353 68.894H53.3345C50.8469 68.8911 48.8308 66.8753 48.8281 64.3876V46.5406C48.831 44.0529 50.8469 42.0369 53.3345 42.0342H83.2353C85.723 42.0371 87.739 44.0529 87.7417 46.5406V64.3876C87.739 66.8753 85.7231 68.8913 83.2353 68.894V68.894ZM53.3345 44.3778C52.1406 44.3791 51.1731 45.3467 51.1719 46.5404V64.3874C51.1732 65.5813 52.1408 66.5487 53.3345 66.5501H83.2353C84.4292 66.5487 85.3968 65.5812 85.398 64.3874V46.5406C85.3966 45.3467 84.429 44.3791 83.2353 44.3779L53.3345 44.3778Z" fill="#1E2E36"/>
<path d="M83.2353 87.1791H53.3345C50.8469 87.1762 48.8308 85.1603 48.8281 82.6726V71.0569C48.831 68.5692 50.8469 66.5532 53.3345 66.5505H83.2353C85.723 66.5533 87.739 68.5692 87.7417 71.0569V82.6726C87.739 85.1603 85.7231 87.1764 83.2353 87.1791V87.1791ZM53.3345 68.8941C52.1406 68.8954 51.1732 69.863 51.1719 71.0567V82.6725C51.1732 83.8664 52.1408 84.8338 53.3345 84.8351H83.2353C84.4292 84.8338 85.3968 83.8662 85.398 82.6725V71.0567C85.3966 69.8628 84.429 68.8952 83.2353 68.8941H53.3345Z" fill="#1E2E36"/>
<path d="M95.4937 87.1791H89.9049C87.4172 87.1762 85.4011 85.1603 85.3984 82.6726V60.4356C85.4013 57.948 87.4172 55.9319 89.9049 55.9292H95.4937C97.9814 55.9321 99.9974 57.948 100 60.4356V82.6726C99.9973 85.1603 97.9814 87.1764 95.4937 87.1791ZM89.9047 58.273C88.7108 58.2743 87.7434 59.2417 87.742 60.4356V82.6726C87.7434 83.8666 88.7109 84.834 89.9047 84.8353H95.4935C96.6875 84.834 97.655 83.8664 97.6562 82.6725V60.4356C97.6549 59.2417 96.6875 58.2741 95.4935 58.273H89.9047Z" fill="#1E2E36"/>
<path d="M52.7399 68.8939H47.2607C46.6135 68.8939 46.0889 68.3693 46.0889 67.7221C46.0889 67.075 46.6135 66.5502 47.2607 66.5502H52.7399C53.387 66.5502 53.9118 67.0748 53.9118 67.7221C53.9118 68.3694 53.387 68.8939 52.7399 68.8939Z" fill="#1E2E36"/>
<path d="M71.4506 38.6387H28.5497C27.9026 38.6387 27.3779 38.1141 27.3779 37.4668V9.62467C27.3779 8.97754 27.9026 8.45288 28.5497 8.45288H71.4506C72.0978 8.45288 72.6224 8.97754 72.6224 9.62467V37.4668C72.6224 38.1139 72.0978 38.6387 71.4506 38.6387ZM29.7217 36.295H70.2788V10.7965H29.7217V36.295Z" fill="#1E2E36"/>
<path d="M67.5469 34.7351H32.453C31.8059 34.7351 31.2812 34.2104 31.2812 33.5631V13.5283C31.2812 12.8812 31.8059 12.3565 32.453 12.3565H67.5469C68.1942 12.3565 68.7188 12.8812 68.7188 13.5283V33.5631C68.7186 34.2104 68.194 34.7351 67.5469 34.7351ZM33.625 32.3913H66.3751V14.7003H33.625V32.3913Z" fill="#1E2E36"/>
<path d="M36.6534 30.4398C36.0063 30.4398 35.4814 29.9151 35.4814 29.268C35.4814 28.9572 35.6049 28.659 35.8247 28.4393L41.851 22.4127C42.3086 21.9551 43.0507 21.9551 43.5083 22.4127L47.1654 26.0697C47.623 26.5273 47.623 27.2693 47.1654 27.7269C46.7078 28.1845 45.9657 28.1845 45.5081 27.7269L42.6798 24.8987L37.482 30.0965C37.2625 30.3166 36.9642 30.4401 36.6534 30.4398V30.4398Z" fill="#1E2E36"/>
<path d="M63.3461 30.3798C63.0353 30.3801 62.737 30.2566 62.5176 30.0365C61.0916 28.6105 59.6655 27.1838 58.2395 25.7564C56.6338 24.1527 55.0292 22.5482 53.426 20.9428L52.6743 20.1916C52.4375 19.9549 52.2007 19.7183 51.9638 19.4816L45.4419 26.0036C44.9843 26.4612 44.2422 26.4612 43.7846 26.0036C43.327 25.546 43.327 24.8039 43.7846 24.3463L51.1356 16.9953C51.3554 16.7755 51.6535 16.652 51.9643 16.652H51.9652C52.2763 16.6522 52.5745 16.7762 52.7942 16.9965C53.3057 17.5093 53.8179 18.0218 54.3311 18.5338L55.0839 19.2862C56.6866 20.8909 58.291 22.4953 59.8971 24.0993C61.3218 25.526 62.7478 26.9527 64.1752 28.3794C64.6328 28.837 64.6328 29.5791 64.1752 30.0367C63.9549 30.2563 63.6569 30.3798 63.3461 30.3798V30.3798Z" fill="#1E2E36"/>
<path d="M59.0691 26.1002C58.7584 26.1002 58.4604 25.977 58.2407 25.7574C56.6336 24.1525 55.0287 22.5476 53.4258 20.9426C53.0922 20.6086 52.9915 20.1069 53.1706 19.6701C54.1888 17.1854 57.0283 15.9968 59.513 17.0148C61.9976 18.0331 63.1863 20.8726 62.1682 23.3573C61.6745 24.5622 60.7179 25.5187 59.513 26.0125C59.3723 26.0704 59.2214 26.1002 59.0691 26.1002V26.1002ZM55.7179 19.9209C56.8983 21.1025 58.0799 22.2839 59.2626 23.4657C60.34 22.5853 60.4996 20.9983 59.6192 19.9209C58.7388 18.8436 57.1518 18.6839 56.0745 19.5643C55.944 19.6709 55.8245 19.7904 55.7179 19.9209Z" fill="#1E2E36"/>
<path d="M92.699 91.5471C91.283 91.5488 90.0485 90.5844 89.7075 89.2101L88.9794 86.2907C88.8228 85.6626 89.2049 85.0267 89.833 84.8701C89.9257 84.8469 90.021 84.8353 90.1166 84.8353H95.2815C95.9286 84.8353 96.4534 85.3599 96.4534 86.0071C96.4534 86.1027 96.4418 86.1979 96.4186 86.2907L95.6906 89.2101C95.3495 90.5844 94.1151 91.549 92.699 91.5471V91.5471ZM91.6166 87.179L91.9816 88.6429C92.0805 89.039 92.4816 89.2802 92.8779 89.1814C93.1431 89.1152 93.3502 88.9081 93.4164 88.6429L93.7815 87.1789L91.6166 87.179Z" fill="#1E2E36"/>
<path d="M7.30059 91.5471C5.88454 91.5488 4.65008 90.5844 4.30904 89.2101L3.58099 86.2907C3.42441 85.6626 3.8065 85.0267 4.43454 84.8701C4.52728 84.8469 4.62255 84.8353 4.71816 84.8353H9.88303C10.5302 84.8353 11.055 85.3599 11.055 86.0071C11.055 86.1027 11.0433 86.1979 11.0202 86.2907L10.2922 89.2101C9.95094 90.5844 8.71648 91.549 7.30059 91.5471V91.5471ZM6.21816 87.179L6.58319 88.6429C6.68201 89.039 7.0832 89.2802 7.47948 89.1814C7.74468 89.1152 7.95178 88.9081 8.01799 88.6429L8.38303 87.1789L6.21816 87.179Z" fill="#1E2E36"/>
</g>
<defs>
<clipPath id="clip0_121_64">
<rect width="100" height="100" fill="white"/>
</clipPath>
</defs>
</svg>
