<svg width="100" height="100" viewBox="0 0 100 100" fill="none" xmlns="http://www.w3.org/2000/svg">
<g clip-path="url(#clip0_102_204)">
<path d="M82.7653 100H17.2353C16.5881 100 16.0635 99.4753 16.0635 98.828V1.17179C16.0635 0.524663 16.5881 0 17.2353 0H82.7653C83.4124 0 83.9372 0.524663 83.9372 1.17179V98.828C83.9371 99.4753 83.4124 100 82.7653 100ZM18.4072 97.6562H81.5933V2.34375H18.4072V97.6562Z" fill="#1E2E36"/>
<path d="M50.0001 71.4942C49.353 71.4942 48.8281 71.119 48.8281 70.6564V0.837839C48.8281 0.37517 49.3528 0 50.0001 0C50.6474 0 51.1719 0.37517 51.1719 0.837839V70.6562C51.172 71.1189 50.6474 71.4942 50.0001 71.4942Z" fill="#1E2E36"/>
<path d="M50.0002 100H17.2353C16.5881 100 16.0635 99.4753 16.0635 98.828V84.5751C16.0635 83.928 16.5881 83.4033 17.2353 83.4033H50.0002C50.6473 83.4033 51.172 83.928 51.172 84.5751V98.828C51.1721 99.4753 50.6475 100 50.0002 100ZM18.4072 97.6562H48.8284V85.7471H18.4072V97.6562Z" fill="#1E2E36"/>
<path d="M50.0002 85.7472H17.2353C16.5881 85.7472 16.0635 85.2225 16.0635 84.5752V70.3224C16.0635 69.6752 16.5881 69.1504 17.2353 69.1504H50.0002C50.6473 69.1504 51.172 69.6751 51.172 70.3224V84.5752C51.1721 85.2225 50.6475 85.7472 50.0002 85.7472ZM18.4071 83.4035H48.8282V71.4943H18.4072L18.4071 83.4035Z" fill="#1E2E36"/>
<path d="M35.2673 78.6206H31.9687C31.3215 78.6206 30.7969 78.0959 30.7969 77.4488C30.7969 76.8017 31.3215 76.2769 31.9687 76.2769H35.2673C35.9145 76.2769 36.4391 76.8015 36.4391 77.4488C36.4391 78.0961 35.9145 78.6206 35.2673 78.6206Z" fill="#1E2E36"/>
<path d="M43.0938 38.3539C42.4467 38.3539 41.9219 37.8292 41.9219 37.1821V34.3123C41.9219 33.6652 42.4465 33.1405 43.0938 33.1405C43.7411 33.1405 44.2656 33.6652 44.2656 34.3123V37.1821C44.2656 37.8292 43.741 38.3539 43.0938 38.3539Z" fill="#1E2E36"/>
<path d="M56.9062 52.6069C56.259 52.6069 55.7344 52.0822 55.7344 51.4349V48.5652C55.7344 47.918 56.259 47.3932 56.9062 47.3932C57.5533 47.3932 58.0781 47.9179 58.0781 48.5652V51.4349C58.0781 52.0822 57.5535 52.6069 56.9062 52.6069Z" fill="#1E2E36"/>
<path d="M35.2673 92.8737H31.9687C31.3215 92.8737 30.7969 92.349 30.7969 91.7019C30.7969 91.0547 31.3215 90.5299 31.9687 90.5299H35.2673C35.9145 90.5299 36.4391 91.0546 36.4391 91.7019C36.4391 92.3492 35.9145 92.8737 35.2673 92.8737Z" fill="#1E2E36"/>
</g>
<defs>
<clipPath id="clip0_102_204">
<rect width="100" height="100" fill="white"/>
</clipPath>
</defs>
</svg>
