<svg width="100" height="100" viewBox="0 0 100 100" fill="none" xmlns="http://www.w3.org/2000/svg">
<g clip-path="url(#clip0_121_100)">
<path d="M93.5452 42.0746H6.455C5.80787 42.0746 5.2832 41.5499 5.2832 40.9028V15.4306C5.2832 14.7835 5.80787 14.2589 6.455 14.2589H93.5452C94.1923 14.2589 94.7171 14.7835 94.7171 15.4306V40.9026C94.717 41.5499 94.1923 42.0746 93.5452 42.0746ZM7.62696 39.7309H92.3734V16.6026H7.62696V39.7309Z" fill="#1E2E36"/>
<path d="M93.5452 67.5466H6.455C5.80787 67.5466 5.2832 67.022 5.2832 66.3747V40.9027C5.2832 40.2555 5.80787 39.7307 6.455 39.7307H93.5452C94.1923 39.7307 94.7171 40.2554 94.7171 40.9027V66.3747C94.717 67.022 94.1923 67.5466 93.5452 67.5466ZM7.62696 65.2029H92.3734V42.0746H7.62696V65.2029Z" fill="#1E2E36"/>
<path d="M93.5452 93.0187H6.455C5.80787 93.0187 5.2832 92.494 5.2832 91.8467V66.3749C5.2832 65.7278 5.80787 65.2029 6.455 65.2029H93.5452C94.1923 65.2029 94.7171 65.7276 94.7171 66.3749V91.8469C94.717 92.494 94.1923 93.0187 93.5452 93.0187ZM7.62696 90.6749H92.3734V67.5467H7.62696V90.6749Z" fill="#1E2E36"/>
<path d="M52.1915 29.3387H47.8077C47.1606 29.3387 46.6357 28.814 46.6357 28.1669C46.6357 27.5198 47.1604 26.9949 47.8077 26.9949H52.1915C52.8386 26.9949 53.3635 27.5196 53.3635 28.1669C53.3635 28.8142 52.8386 29.3387 52.1915 29.3387Z" fill="#1E2E36"/>
<path d="M52.1915 54.8107H47.8077C47.1606 54.8107 46.6357 54.286 46.6357 53.6387C46.6357 52.9914 47.1604 52.4667 47.8077 52.4667H52.1915C52.8386 52.4667 53.3635 52.9914 53.3635 53.6387C53.3635 54.286 52.8386 54.8107 52.1915 54.8107Z" fill="#1E2E36"/>
<path d="M52.1915 80.2827H47.8077C47.1606 80.2827 46.6357 79.7581 46.6357 79.1108C46.6357 78.4635 47.1604 77.939 47.8077 77.939H52.1915C52.8386 77.939 53.3635 78.4636 53.3635 79.1108C53.3635 79.7579 52.8386 80.2827 52.1915 80.2827Z" fill="#1E2E36"/>
<path d="M96.875 16.6027H3.12501C1.4 16.6006 0.00202703 15.2027 0 13.4777V10.1062C0.00202703 8.3812 1.4 6.98323 3.12501 6.9812H96.875C98.6 6.98323 99.998 8.3812 100 10.1062V13.4777C99.998 15.2027 98.6 16.6006 96.875 16.6027ZM3.12501 9.32496C2.69375 9.32546 2.34426 9.67496 2.34375 10.1062V13.4777C2.34426 13.9089 2.69375 14.2584 3.12501 14.2589H96.875C97.3062 14.2584 97.6557 13.9089 97.6562 13.4777V10.1062C97.6557 9.67496 97.3062 9.32546 96.875 9.32496H3.12501Z" fill="#1E2E36"/>
</g>
<defs>
<clipPath id="clip0_121_100">
<rect width="100" height="100" fill="white"/>
</clipPath>
</defs>
</svg>
